<?xml version="1.0" encoding="UTF-8" standalone="no"?>
<!DOCTYPE svg PUBLIC "-//W3C//DTD SVG 1.1//EN"
 "http://www.w3.org/Graphics/SVG/1.1/DTD/svg11.dtd">
<!-- Generated by graphviz version 2.26.3 (20100126.1600)
 -->
<!-- Title: G Pages: 1 -->
<svg width="1353pt" height="357pt"
 viewBox="0.00 0.00 1353.00 357.00" xmlns="http://www.w3.org/2000/svg" xmlns:xlink="http://www.w3.org/1999/xlink">
<g id="graph1" class="graph" transform="scale(1 1) rotate(0) translate(4 353)">
<title>G</title>
<polygon fill="white" stroke="white" points="-4,5 -4,-353 1350,-353 1350,5 -4,5"/>
<g id="graph2" class="cluster"><title>cluster_~0</title>
<polygon fill="none" stroke="lightgrey" points="161,-52 161,-214 1213,-214 1213,-52 161,-52"/>
<text text-anchor="middle" x="687" y="-197.4" font-family="Times Roman,serif" font-size="14.00">~</text>
</g>
<g id="graph3" class="cluster"><title>cluster_~1</title>
<polygon fill="none" stroke="lightgrey" points="169,-60 169,-180 727,-180 727,-60 169,-60"/>
<text text-anchor="middle" x="448" y="-163.4" font-family="Times Roman,serif" font-size="14.00">~</text>
</g>
<g id="graph4" class="cluster"><title>cluster_*</title>
<polygon fill="none" stroke="lightgrey" points="557,-68 557,-146 719,-146 719,-68 557,-68"/>
<text text-anchor="middle" x="638" y="-129.4" font-family="Times Roman,serif" font-size="14.00">*</text>
</g>
<g id="graph5" class="cluster"><title>cluster_|</title>
<polygon fill="none" stroke="lightgrey" points="1043,-88 1043,-166 1205,-166 1205,-88 1043,-88"/>
<text text-anchor="middle" x="1124" y="-149.4" font-family="Times Roman,serif" font-size="14.00">|</text>
</g>
<g id="graph6" class="cluster"><title>cluster_legend</title>
<polygon fill="none" stroke="black" points="8,-222 8,-341 239,-341 239,-222 8,-222"/>
<text text-anchor="middle" x="123.5" y="-324.4" font-family="Times Roman,serif" font-size="14.00">legend</text>
</g>
<!-- * -->
<g id="node4" class="node"><title>*</title>
<ellipse fill="none" stroke="black" cx="592" cy="-94" rx="27" ry="18.3848"/>
<text text-anchor="middle" x="592" y="-90.4" font-family="Times Roman,serif" font-size="14.00">*</text>
</g>
<!-- b -->
<g id="node6" class="node"><title>b</title>
<ellipse fill="none" stroke="black" cx="684" cy="-94" rx="27" ry="18.3848"/>
<text text-anchor="middle" x="684" y="-90.4" font-family="Times Roman,serif" font-size="14.00">b</text>
</g>
<!-- *&#45;&gt;b -->
<g id="edge5" class="edge"><title>*&#45;&gt;b</title>
<path fill="none" stroke="green" d="M629.872,-87.3445C635.899,-87.203 642.119,-87.2204 648.098,-87.3967"/>
<polygon fill="green" stroke="green" points="629.616,-87.3556 623.795,-91.6123 617.627,-87.8766 623.448,-83.6199 629.616,-87.3556"/>
<polygon fill="green" stroke="green" points="648.357,-90.9126 658.51,-87.8857 648.686,-83.9203 648.357,-90.9126"/>
</g>
<!-- b&#45;&gt;* -->
<g id="edge7" class="edge"><title>b&#45;&gt;*</title>
<path fill="none" stroke="green" d="M646.409,-100.649C640.304,-100.797 633.994,-100.782 627.929,-100.604"/>
<polygon fill="green" stroke="green" points="646.522,-100.644 652.34,-96.383 658.51,-100.114 652.693,-104.375 646.522,-100.644"/>
<polygon fill="green" stroke="green" points="627.779,-97.0934 617.627,-100.123 627.453,-104.086 627.779,-97.0934"/>
</g>
<!-- InnerSequenceOperator2 -->
<g id="node15" class="node"><title>InnerSequenceOperator2</title>
<ellipse fill="none" stroke="black" cx="884" cy="-105" rx="128.193" ry="18.3848"/>
<text text-anchor="middle" x="884" y="-101.4" font-family="Times Roman,serif" font-size="14.00">InnerSequenceOperator</text>
</g>
<!-- b&#45;&gt;InnerSequenceOperator2 -->
<g id="edge15" class="edge"><title>b&#45;&gt;InnerSequenceOperator2</title>
<path fill="none" stroke="red" d="M723.32,-96.1626C732.607,-96.6734 743.016,-97.2459 753.954,-97.8474"/>
<polygon fill="none" stroke="red" points="722.955,-96.1426 716.744,-99.807 710.973,-95.4835 717.184,-91.8191 722.955,-96.1426"/>
<polygon fill="red" stroke="red" points="753.953,-101.353 764.13,-98.4072 754.337,-94.3632 753.953,-101.353"/>
</g>
<!-- a1 -->
<g id="node8" class="node"><title>a1</title>
<ellipse fill="none" stroke="black" cx="204" cy="-90" rx="27" ry="18.3848"/>
<text text-anchor="middle" x="204" y="-86.4" font-family="Times Roman,serif" font-size="14.00">a</text>
</g>
<!-- InnerSequenceOperator -->
<g id="node10" class="node"><title>InnerSequenceOperator</title>
<ellipse fill="none" stroke="black" cx="398" cy="-93" rx="128.193" ry="18.3848"/>
<text text-anchor="middle" x="398" y="-89.4" font-family="Times Roman,serif" font-size="14.00">InnerSequenceOperator</text>
</g>
<!-- a1&#45;&gt;InnerSequenceOperator -->
<g id="edge9" class="edge"><title>a1&#45;&gt;InnerSequenceOperator</title>
<path fill="none" stroke="green" d="M243.4,-90.6093C248.479,-90.6878 253.888,-90.7715 259.529,-90.8587"/>
<polygon fill="green" stroke="green" points="243.383,-90.6091 237.321,-94.5158 231.384,-90.4235 237.445,-86.5168 243.383,-90.6091"/>
<polygon fill="green" stroke="green" points="259.855,-94.3641 269.908,-91.0192 259.963,-87.3649 259.855,-94.3641"/>
</g>
<!-- failure -->
<g id="node20" class="node"><title>failure</title>
<ellipse fill="none" stroke="black" cx="1293" cy="-46" rx="41.9702" ry="42.4264"/>
<ellipse fill="none" stroke="black" cx="1293" cy="-46" rx="45.9272" ry="46.4264"/>
<text text-anchor="middle" x="1293" y="-42.4" font-family="Times Roman,serif" font-size="14.00">failure</text>
</g>
<!-- a1&#45;&gt;failure -->
<g id="edge21" class="edge"><title>a1&#45;&gt;failure</title>
<path fill="none" stroke="red" d="M238.173,-75.872C247.994,-72.2269 258.808,-68.6022 269,-66 325.151,-51.6642 340.048,-47 398,-47 398,-47 398,-47 1170,-47 1191.56,-47 1215.24,-46.8445 1236.02,-46.6562"/>
<polygon fill="none" stroke="red" points="237.991,-75.9425 233.832,-81.8337 226.795,-80.261 230.953,-74.3697 237.991,-75.9425"/>
<polygon fill="red" stroke="red" points="1236.31,-50.1536 1246.28,-46.5585 1236.24,-43.154 1236.31,-50.1536"/>
</g>
<!-- InnerSequenceOperator&#45;&gt;* -->
<g id="edge10" class="edge"><title>InnerSequenceOperator&#45;&gt;*</title>
<path fill="none" stroke="green" d="M538.605,-93.7248C544.146,-93.7533 549.448,-93.7807 554.412,-93.8062"/>
<polygon fill="green" stroke="green" points="538.591,-93.7248 532.57,-97.6938 526.591,-93.6628 532.611,-89.6939 538.591,-93.7248"/>
<polygon fill="green" stroke="green" points="554.684,-97.3076 564.702,-93.8593 554.72,-90.3077 554.684,-97.3076"/>
</g>
<!-- a2 -->
<g id="node12" class="node"><title>a2</title>
<ellipse fill="none" stroke="black" cx="1078" cy="-114" rx="27" ry="18.3848"/>
<text text-anchor="middle" x="1078" y="-110.4" font-family="Times Roman,serif" font-size="14.00">a</text>
</g>
<!-- c -->
<g id="node14" class="node"><title>c</title>
<ellipse fill="none" stroke="black" cx="1170" cy="-114" rx="27" ry="18.3848"/>
<text text-anchor="middle" x="1170" y="-110.4" font-family="Times Roman,serif" font-size="14.00">c</text>
</g>
<!-- a2&#45;&gt;c -->
<g id="edge13" class="edge"><title>a2&#45;&gt;c</title>
<path fill="none" stroke="red" d="M1117.31,-114C1122.4,-114 1127.61,-114 1132.67,-114"/>
<polygon fill="none" stroke="red" points="1117.11,-114 1111.11,-118 1105.11,-114 1111.11,-110 1117.11,-114"/>
<polygon fill="red" stroke="red" points="1132.77,-117.5 1142.77,-114 1132.77,-110.5 1132.77,-117.5"/>
</g>
<!-- success -->
<g id="node19" class="node"><title>success</title>
<ellipse fill="none" stroke="black" cx="1293" cy="-162" rx="48.0833" ry="48.0833"/>
<ellipse fill="none" stroke="black" cx="1293" cy="-162" rx="52.0833" ry="52.0833"/>
<text text-anchor="middle" x="1293" y="-158.4" font-family="Times Roman,serif" font-size="14.00">success</text>
</g>
<!-- a2&#45;&gt;success -->
<g id="edge23" class="edge"><title>a2&#45;&gt;success</title>
<path fill="none" stroke="green" d="M1110.98,-129.604C1121.07,-133.856 1132.32,-138.087 1143,-141 1171.34,-148.734 1203.52,-153.718 1230.78,-156.878"/>
<polygon fill="green" stroke="green" points="1110.76,-129.508 1103.65,-130.756 1099.77,-124.681 1106.87,-123.432 1110.76,-129.508"/>
<polygon fill="green" stroke="green" points="1230.65,-160.384 1240.97,-158.002 1231.41,-153.426 1230.65,-160.384"/>
</g>
<!-- c&#45;&gt;success -->
<g id="edge25" class="edge"><title>c&#45;&gt;success</title>
<path fill="none" stroke="green" d="M1204.63,-127.515C1214.09,-131.207 1224.61,-135.31 1234.99,-139.362"/>
<polygon fill="green" stroke="green" points="1204.6,-127.504 1197.56,-129.049 1193.42,-123.141 1200.47,-121.596 1204.6,-127.504"/>
<polygon fill="green" stroke="green" points="1233.86,-142.68 1244.45,-143.055 1236.41,-136.159 1233.86,-142.68"/>
</g>
<!-- c&#45;&gt;failure -->
<g id="edge27" class="edge"><title>c&#45;&gt;failure</title>
<path fill="none" stroke="red" d="M1202.82,-97.4165C1206.27,-95.6117 1209.72,-93.7829 1213,-92 1223.13,-86.5017 1233.88,-80.4616 1244.11,-74.6183"/>
<polygon fill="none" stroke="red" points="1202.65,-97.5082 1199.15,-103.815 1191.98,-103.014 1195.48,-96.7067 1202.65,-97.5082"/>
<polygon fill="red" stroke="red" points="1246,-77.5672 1252.93,-69.5524 1242.51,-71.4968 1246,-77.5672"/>
</g>
<!-- InnerSequenceOperator2&#45;&gt;a2 -->
<g id="edge17" class="edge"><title>InnerSequenceOperator2&#45;&gt;a2</title>
<path fill="none" stroke="green" d="M1018.33,-111.232C1026.22,-111.598 1033.72,-111.946 1040.57,-112.264"/>
<polygon fill="green" stroke="green" points="1018.02,-111.218 1011.85,-114.935 1006.04,-110.662 1012.22,-106.944 1018.02,-111.218"/>
<polygon fill="green" stroke="green" points="1040.62,-115.77 1050.77,-112.737 1040.94,-108.777 1040.62,-115.77"/>
</g>
<!-- start -->
<g id="node18" class="node"><title>start</title>
<ellipse fill="none" stroke="black" cx="43" cy="-90" rx="34.9078" ry="35.3553"/>
<ellipse fill="none" stroke="black" cx="43" cy="-90" rx="38.8572" ry="39.3553"/>
<text text-anchor="middle" x="43" y="-86.4" font-family="Times Roman,serif" font-size="14.00">start</text>
</g>
<!-- start&#45;&gt;a1 -->
<g id="edge19" class="edge"><title>start&#45;&gt;a1</title>
<path fill="none" stroke="black" d="M82.7978,-90C108.382,-90 141.41,-90 166.525,-90"/>
<polygon fill="black" stroke="black" points="166.76,-93.5001 176.76,-90 166.76,-86.5001 166.76,-93.5001"/>
</g>
<!-- nodea -->
<g id="node27" class="node"><title>nodea</title>
<ellipse fill="none" stroke="black" cx="43" cy="-268" rx="27" ry="18.3848"/>
<text text-anchor="middle" x="43" y="-264.4" font-family="Times Roman,serif" font-size="14.00">a</text>
</g>
<!-- nodeb -->
<g id="node28" class="node"><title>nodeb</title>
<ellipse fill="none" stroke="black" cx="204" cy="-268" rx="27" ry="18.3848"/>
<text text-anchor="middle" x="204" y="-264.4" font-family="Times Roman,serif" font-size="14.00">b</text>
</g>
<!-- nodea&#45;&gt;nodeb -->
<g id="edge30" class="edge"><title>nodea&#45;&gt;nodeb</title>
<path fill="none" stroke="red" d="M77.6767,-254.671C85.2537,-252.316 93.3093,-250.228 101,-249 123.822,-245.357 130.255,-244.901 153,-249 159.346,-250.144 165.934,-252.028 172.183,-254.177"/>
<polygon fill="none" stroke="red" points="77.6587,-254.677 73.2475,-260.381 66.2852,-258.504 70.6963,-252.799 77.6587,-254.677"/>
<polygon fill="red" stroke="red" points="171.047,-257.489 181.64,-257.703 173.493,-250.93 171.047,-257.489"/>
<text text-anchor="middle" x="127" y="-254.4" font-family="Times Roman,serif" font-size="14.00">failure</text>
</g>
<!-- nodea&#45;&gt;nodeb -->
<g id="edge32" class="edge"><title>nodea&#45;&gt;nodeb</title>
<path fill="none" stroke="green" d="M82.5916,-268C108.217,-268 141.375,-268 166.562,-268"/>
<polygon fill="green" stroke="green" points="82.3115,-268 76.3114,-272 70.3115,-268 76.3115,-264 82.3115,-268"/>
<polygon fill="green" stroke="green" points="166.824,-271.5 176.824,-268 166.824,-264.5 166.824,-271.5"/>
<text text-anchor="middle" x="127" y="-273.4" font-family="Times Roman,serif" font-size="14.00">success</text>
</g>
</g>
</svg>
