<?xml version="1.0" encoding="UTF-8" standalone="no"?>
<!DOCTYPE svg PUBLIC "-//W3C//DTD SVG 1.0//EN"
 "http://www.w3.org/TR/2001/REC-SVG-20010904/DTD/svg10.dtd" [
 <!ATTLIST svg xmlns:xlink CDATA #FIXED "http://www.w3.org/1999/xlink">
]>
<!-- Generated by Graphviz version 2.20.2 (Tue Mar &#160;2 19:03:41 UTC 2010)
     For user: (luke) Lucas Bruand,,, -->
<!-- Title: G Pages: 1 -->
<svg width="960pt" height="240pt"
 viewBox="0.00 0.00 960.00 240.00" xmlns="http://www.w3.org/2000/svg" xmlns:xlink="http://www.w3.org/1999/xlink">
<g id="graph0" class="graph" transform="scale(1 1) rotate(0) translate(4 236)">
<title>G</title>
<polygon style="fill:white;stroke:white;" points="-4,4 -4,-236 956,-236 956,4 -4,4"/>
<g id="cluster2" class="cluster"><title>cluster_~0</title>
<polygon style="fill:none;stroke:lightgrey;" points="96,-65 96,-224 832,-224 832,-65 96,-65"/>
<text text-anchor="middle" x="464" y="-207.9" style="font-family:Times New Roman;font-size:14.00;">~</text>
</g>
<g id="cluster3" class="cluster"><title>cluster_~1</title>
<polygon style="fill:none;stroke:lightgrey;" points="104,-73 104,-191 652,-191 652,-73 104,-73"/>
<text text-anchor="middle" x="378" y="-174.9" style="font-family:Times New Roman;font-size:14.00;">~</text>
</g>
<g id="cluster4" class="cluster"><title>cluster_*</title>
<polygon style="fill:none;stroke:lightgrey;" points="484,-81 484,-158 644,-158 644,-81 484,-81"/>
<text text-anchor="middle" x="564" y="-141.9" style="font-family:Times New Roman;font-size:14.00;">*</text>
</g>
<g id="cluster5" class="cluster"><title>cluster_|</title>
<polygon style="fill:none;stroke:lightgrey;" points="664,-83 664,-160 824,-160 824,-83 664,-83"/>
<text text-anchor="middle" x="744" y="-143.9" style="font-family:Times New Roman;font-size:14.00;">|</text>
</g>
<!-- * -->
<g id="node4" class="node"><title>*</title>
<ellipse style="fill:none;stroke:black;" cx="519" cy="-107" rx="27" ry="18"/>
<text text-anchor="middle" x="519" y="-102.9" style="font-family:Times New Roman;font-size:14.00;">*</text>
</g>
<!-- b -->
<g id="node6" class="node"><title>b</title>
<ellipse style="fill:none;stroke:black;" cx="609" cy="-107" rx="27" ry="18"/>
<text text-anchor="middle" x="609" y="-102.9" style="font-family:Times New Roman;font-size:14.00;">b</text>
</g>
<!-- *&#45;&gt;b -->
<g id="edge5" class="edge"><title>*&#45;&gt;b</title>
<path style="fill:none;stroke:green;" d="M545,-101C554,-100 563,-100 573,-100"/>
<polygon style="fill:green;stroke:green;" points="572.701,-103.488 583,-101 573.398,-96.5222 572.701,-103.488"/>
</g>
<!-- b&#45;&gt;* -->
<g id="edge7" class="edge"><title>b&#45;&gt;*</title>
<path style="fill:none;stroke:green;" d="M583,-113C574,-114 565,-114 555,-114"/>
<polygon style="fill:green;stroke:green;" points="555.299,-110.512 545,-113 554.602,-117.478 555.299,-110.512"/>
</g>
<!-- a2 -->
<g id="node12" class="node"><title>a2</title>
<ellipse style="fill:none;stroke:black;" cx="699" cy="-109" rx="27" ry="18"/>
<text text-anchor="middle" x="699" y="-104.9" style="font-family:Times New Roman;font-size:14.00;">a</text>
</g>
<!-- b&#45;&gt;a2 -->
<g id="edge15" class="edge"><title>b&#45;&gt;a2</title>
<path style="fill:none;stroke:red;" d="M636,-108C644,-108 653,-108 662,-108"/>
<polygon style="fill:red;stroke:red;" points="662,-111.5 672,-108 662,-104.5 662,-111.5"/>
</g>
<!-- a1 -->
<g id="node8" class="node"><title>a1</title>
<ellipse style="fill:none;stroke:black;" cx="139" cy="-103" rx="27" ry="18"/>
<text text-anchor="middle" x="139" y="-98.9" style="font-family:Times New Roman;font-size:14.00;">a</text>
</g>
<!-- InnerSequenceOperator -->
<g id="node10" class="node"><title>InnerSequenceOperator</title>
<ellipse style="fill:none;stroke:black;" cx="329" cy="-105" rx="125.969" ry="18"/>
<text text-anchor="middle" x="329" y="-100.9" style="font-family:Times New Roman;font-size:14.00;">InnerSequenceOperator</text>
</g>
<!-- a1&#45;&gt;InnerSequenceOperator -->
<g id="edge9" class="edge"><title>a1&#45;&gt;InnerSequenceOperator</title>
<path style="fill:none;stroke:green;" d="M166,-103C173,-103 183,-103 193,-103"/>
<polygon style="fill:green;stroke:green;" points="192.701,-106.488 203,-104 193.398,-99.5222 192.701,-106.488"/>
</g>
<!-- failure -->
<g id="node18" class="node"><title>failure</title>
<ellipse style="fill:none;stroke:black;" cx="902" cy="-53" rx="41.2348" ry="41.2348"/>
<ellipse style="fill:none;stroke:black;" cx="902" cy="-53" rx="45.1908" ry="45.1908"/>
<text text-anchor="middle" x="902" y="-48.9" style="font-family:Times New Roman;font-size:14.00;">failure</text>
</g>
<!-- a1&#45;&gt;failure -->
<g id="edge19" class="edge"><title>a1&#45;&gt;failure</title>
<path style="fill:none;stroke:red;" d="M161,-92C173,-87 188,-81 202,-78 340,-47 378,-58 519,-57 519,-57 519,-57 699,-57 750,-57 806,-56 847,-54"/>
<polygon style="fill:red;stroke:red;" points="847,-57.5001 857,-54 847,-50.5001 847,-57.5001"/>
</g>
<!-- InnerSequenceOperator&#45;&gt;* -->
<g id="edge10" class="edge"><title>InnerSequenceOperator&#45;&gt;*</title>
<path style="fill:none;stroke:green;" d="M455,-106C465,-106 474,-106 482,-107"/>
<polygon style="fill:green;stroke:green;" points="482,-110.5 492,-107 482,-103.5 482,-110.5"/>
</g>
<!-- c -->
<g id="node14" class="node"><title>c</title>
<ellipse style="fill:none;stroke:black;" cx="789" cy="-109" rx="27" ry="18"/>
<text text-anchor="middle" x="789" y="-104.9" style="font-family:Times New Roman;font-size:14.00;">c</text>
</g>
<!-- a2&#45;&gt;c -->
<g id="edge13" class="edge"><title>a2&#45;&gt;c</title>
<path style="fill:none;stroke:red;" d="M726,-109C734,-109 743,-109 752,-109"/>
<polygon style="fill:red;stroke:red;" points="752,-112.5 762,-109 752,-105.5 752,-112.5"/>
</g>
<!-- success -->
<g id="node17" class="node"><title>success</title>
<ellipse style="fill:none;stroke:black;" cx="902" cy="-166" rx="46.0962" ry="46.0962"/>
<ellipse style="fill:none;stroke:black;" cx="902" cy="-166" rx="50.0565" ry="50.0565"/>
<text text-anchor="middle" x="902" y="-161.9" style="font-family:Times New Roman;font-size:14.00;">success</text>
</g>
<!-- a2&#45;&gt;success -->
<g id="edge21" class="edge"><title>a2&#45;&gt;success</title>
<path style="fill:none;stroke:green;" d="M721,-120C733,-125 748,-132 762,-136 788,-144 818,-151 843,-156"/>
<polygon style="fill:green;stroke:green;" points="842.508,-159.471 853,-158 843.881,-152.607 842.508,-159.471"/>
</g>
<!-- c&#45;&gt;success -->
<g id="edge23" class="edge"><title>c&#45;&gt;success</title>
<path style="fill:none;stroke:green;" d="M811,-120C822,-126 835,-132 848,-139"/>
<polygon style="fill:green;stroke:green;" points="846.44,-142.137 857,-143 849.283,-135.74 846.44,-142.137"/>
</g>
<!-- c&#45;&gt;failure -->
<g id="edge25" class="edge"><title>c&#45;&gt;failure</title>
<path style="fill:none;stroke:red;" d="M811,-98C823,-92 838,-85 852,-78"/>
<polygon style="fill:red;stroke:red;" points="853.958,-80.916 861,-73 850.559,-74.7969 853.958,-80.916"/>
</g>
<!-- start -->
<g id="node16" class="node"><title>start</title>
<ellipse style="fill:none;stroke:black;" cx="38" cy="-103" rx="34.0492" ry="34.0492"/>
<ellipse style="fill:none;stroke:black;" cx="38" cy="-103" rx="38.0492" ry="38.0492"/>
<text text-anchor="middle" x="38" y="-98.9" style="font-family:Times New Roman;font-size:14.00;">start</text>
</g>
<!-- start&#45;&gt;a1 -->
<g id="edge17" class="edge"><title>start&#45;&gt;a1</title>
<path style="fill:none;stroke:black;" d="M76,-103C84,-103 93,-103 102,-103"/>
<polygon style="fill:black;stroke:black;" points="102,-106.5 112,-103 102,-99.5001 102,-106.5"/>
</g>
</g>
</svg>
