<?xml version="1.0" encoding="UTF-8" standalone="no"?>
<!DOCTYPE svg PUBLIC "-//W3C//DTD SVG 1.1//EN"
 "http://www.w3.org/Graphics/SVG/1.1/DTD/svg11.dtd">
<!-- Generated by graphviz version 2.26.3 (20100126.1600)
 -->
<!-- Title: _anonymous_0 Pages: 1 -->
<svg width="278pt" height="264pt"
 viewBox="0.00 0.00 278.00 264.00" xmlns="http://www.w3.org/2000/svg" xmlns:xlink="http://www.w3.org/1999/xlink">
<g id="graph1" class="graph" transform="scale(1 1) rotate(0) translate(4 260)">
<title>_anonymous_0</title>
<polygon fill="white" stroke="white" points="-4,5 -4,-260 275,-260 275,5 -4,5"/>
<!-- ~1 -->
<g id="node1" class="node"><title>~1</title>
<polygon fill="none" stroke="black" points="162,-256 108,-256 108,-220 162,-220 162,-256"/>
<text text-anchor="middle" x="135" y="-234.4" font-family="Times Roman,serif" font-size="14.00">~</text>
</g>
<!-- ~2 -->
<g id="node2" class="node"><title>~2</title>
<polygon fill="none" stroke="black" points="126,-184 72,-184 72,-148 126,-148 126,-184"/>
<text text-anchor="middle" x="99" y="-162.4" font-family="Times Roman,serif" font-size="14.00">~</text>
</g>
<!-- ~1&#45;&gt;~2 -->
<g id="edge7" class="edge"><title>~1&#45;&gt;~2</title>
<path fill="none" stroke="black" d="M125.916,-219.831C121.939,-211.877 117.185,-202.369 112.786,-193.572"/>
<polygon fill="black" stroke="black" points="115.809,-191.792 108.207,-184.413 109.548,-194.923 115.809,-191.792"/>
</g>
<!-- | -->
<g id="node4" class="node"><title>|</title>
<polygon fill="none" stroke="black" points="198,-184 144,-184 144,-148 198,-148 198,-184"/>
<text text-anchor="middle" x="171" y="-162.4" font-family="Times Roman,serif" font-size="14.00">|</text>
</g>
<!-- ~1&#45;&gt;| -->
<g id="edge2" class="edge"><title>~1&#45;&gt;|</title>
<path fill="none" stroke="black" d="M144.084,-219.831C148.061,-211.877 152.815,-202.369 157.214,-193.572"/>
<polygon fill="black" stroke="black" points="160.452,-194.923 161.793,-184.413 154.191,-191.792 160.452,-194.923"/>
</g>
<!-- a1 -->
<g id="node3" class="node"><title>a1</title>
<ellipse fill="none" stroke="black" cx="27" cy="-93" rx="27" ry="18.3848"/>
<text text-anchor="middle" x="27" y="-89.4" font-family="Times Roman,serif" font-size="14.00">a</text>
</g>
<!-- ~2&#45;&gt;a1 -->
<g id="edge8" class="edge"><title>~2&#45;&gt;a1</title>
<path fill="none" stroke="black" d="M81.2022,-147.955C71.5515,-138.17 59.5323,-125.984 49.2661,-115.575"/>
<polygon fill="black" stroke="black" points="51.6735,-113.032 42.1594,-108.37 46.6897,-117.947 51.6735,-113.032"/>
</g>
<!-- * -->
<g id="node5" class="node"><title>*</title>
<polygon fill="none" stroke="black" points="126,-111 72,-111 72,-75 126,-75 126,-111"/>
<text text-anchor="middle" x="99" y="-89.4" font-family="Times Roman,serif" font-size="14.00">*</text>
</g>
<!-- ~2&#45;&gt;* -->
<g id="edge10" class="edge"><title>~2&#45;&gt;*</title>
<path fill="none" stroke="black" d="M99,-147.955C99,-139.883 99,-130.176 99,-121.182"/>
<polygon fill="black" stroke="black" points="102.5,-121.09 99,-111.09 95.5001,-121.09 102.5,-121.09"/>
</g>
<!-- a2 -->
<g id="node7" class="node"><title>a2</title>
<ellipse fill="none" stroke="black" cx="171" cy="-93" rx="27" ry="18.3848"/>
<text text-anchor="middle" x="171" y="-89.4" font-family="Times Roman,serif" font-size="14.00">a</text>
</g>
<!-- |&#45;&gt;a2 -->
<g id="edge3" class="edge"><title>|&#45;&gt;a2</title>
<path fill="none" stroke="black" d="M171,-147.955C171,-140.091 171,-130.675 171,-121.878"/>
<polygon fill="black" stroke="black" points="174.5,-121.599 171,-111.6 167.5,-121.6 174.5,-121.599"/>
</g>
<!-- c -->
<g id="node9" class="node"><title>c</title>
<ellipse fill="none" stroke="black" cx="243" cy="-93" rx="27" ry="18.3848"/>
<text text-anchor="middle" x="243" y="-89.4" font-family="Times Roman,serif" font-size="14.00">c</text>
</g>
<!-- |&#45;&gt;c -->
<g id="edge5" class="edge"><title>|&#45;&gt;c</title>
<path fill="none" stroke="black" d="M188.798,-147.955C198.449,-138.17 210.468,-125.984 220.734,-115.575"/>
<polygon fill="black" stroke="black" points="223.31,-117.947 227.841,-108.37 218.327,-113.032 223.31,-117.947"/>
</g>
<!-- b -->
<g id="node12" class="node"><title>b</title>
<ellipse fill="none" stroke="black" cx="99" cy="-19" rx="27" ry="18.3848"/>
<text text-anchor="middle" x="99" y="-15.4" font-family="Times Roman,serif" font-size="14.00">b</text>
</g>
<!-- *&#45;&gt;b -->
<g id="edge11" class="edge"><title>*&#45;&gt;b</title>
<path fill="none" stroke="black" d="M99,-74.7079C99,-66.5866 99,-56.8335 99,-47.7736"/>
<polygon fill="black" stroke="black" points="102.5,-47.5957 99,-37.5957 95.5001,-47.5957 102.5,-47.5957"/>
</g>
</g>
</svg>
